<svg xmlns="http://www.w3.org/2000/svg" width="32" height="32" viewBox="0 0 32 32">
  <g fill="#000000" transform="translate(6, 6)">
    <!-- Brain icon monochrome -->
    <path d="M10 2C8.5 2 7.3 3.2 7.3 4.7c0 .4.1.8.2 1.1C6.6 6.2 6 7.1 6 8.2c0 .9.4 1.7 1 2.3-.6.6-1 1.4-1 2.3 0 1.8 1.5 3.2 3.3 3.2.5 0 1-.1 1.4-.3.4.2.9.3 1.4.3 1.8 0 3.3-1.4 3.3-3.2 0-.9-.4-1.7-1-2.3.6-.6 1-1.4 1-2.3 0-1.1-.6-2-1.5-2.4.1-.3.2-.7.2-1.1C13.7 3.2 12.5 2 11 2z"/>
    <!-- Circuit dots -->
    <circle cx="9" cy="6" r="0.8"/>
    <circle cx="11" cy="8" r="0.6"/>
    <circle cx="7" cy="9" r="0.6"/>
    <circle cx="10" cy="11" r="0.8"/>
  </g>
</svg> 